<svg width="360" height="163" viewBox="0 0 360 163" fill="none" xmlns="http://www.w3.org/2000/svg">
<path d="M0 0H360V0C360 5.52285 355.523 10 350 10H10C4.47716 10 0 5.52285 0 0V0Z" fill="#460C1E"/>
<path d="M0 163C0 157.477 4.47715 153 10 153H350C355.523 153 360 157.477 360 163V163H0V163Z" fill="#460C1E"/>
<path d="M178.062 125.062C178.521 123.833 179 122.51 179.5 121.094C180 119.677 180.49 118.219 180.969 116.719C181.448 115.198 181.906 113.667 182.344 112.125C182.802 110.562 183.208 109.031 183.562 107.531L180.531 97.5938C180.323 96.9062 180.333 96.3125 180.562 95.8125C180.812 95.2917 181.198 94.8646 181.719 94.5312C182.24 94.1771 182.854 93.9167 183.562 93.75C184.292 93.5833 185.052 93.5 185.844 93.5C186.531 93.5 187.146 93.5417 187.688 93.625C188.229 93.6875 188.698 93.8125 189.094 94C189.51 94.1875 189.854 94.4583 190.125 94.8125C190.396 95.1458 190.615 95.5833 190.781 96.125L199.75 125C200.229 123.708 200.729 122.312 201.25 120.812C201.771 119.312 202.281 117.771 202.781 116.188C203.281 114.604 203.76 113 204.219 111.375C204.677 109.75 205.073 108.156 205.406 106.594C205.76 105.031 206.031 103.542 206.219 102.125C206.427 100.688 206.531 99.375 206.531 98.1875C206.531 96.8125 206.438 95.6667 206.25 94.75C206.062 93.8333 205.844 93.0729 205.594 92.4688C205.365 91.8438 205.156 91.3333 204.969 90.9375C204.781 90.5417 204.688 90.1771 204.688 89.8438C204.688 89.4062 204.802 89.0417 205.031 88.75C205.26 88.4375 205.552 88.1771 205.906 87.9688C206.26 87.7604 206.646 87.6146 207.062 87.5312C207.479 87.4271 207.875 87.375 208.25 87.375C209.083 87.375 209.792 87.5 210.375 87.75C210.958 88 211.365 88.4271 211.594 89.0312C211.698 89.3438 211.781 89.6771 211.844 90.0312C211.906 90.3646 211.948 90.6979 211.969 91.0312C212.01 91.3438 212.031 91.6458 212.031 91.9375C212.031 92.2083 212.031 92.4271 212.031 92.5938C212.031 93.4688 211.885 94.6667 211.594 96.1875C211.323 97.7083 210.938 99.4271 210.438 101.344C209.958 103.24 209.406 105.281 208.781 107.469C208.156 109.656 207.5 111.865 206.812 114.094C206.146 116.302 205.469 118.469 204.781 120.594C204.094 122.719 203.438 124.688 202.812 126.5C202.208 128.292 201.667 129.875 201.188 131.25C200.729 132.604 200.375 133.615 200.125 134.281C199.958 134.781 199.729 135.177 199.438 135.469C199.167 135.76 198.844 135.979 198.469 136.125C198.115 136.292 197.719 136.396 197.281 136.438C196.865 136.479 196.427 136.5 195.969 136.5C195.135 136.5 194.448 136.417 193.906 136.25C193.385 136.083 192.969 135.875 192.656 135.625C192.344 135.375 192.115 135.104 191.969 134.812C191.823 134.521 191.708 134.26 191.625 134.031L185.406 113.594C184.719 115.865 184.021 118.104 183.312 120.312C182.604 122.5 181.927 124.521 181.281 126.375C180.656 128.229 180.094 129.854 179.594 131.25C179.094 132.625 178.708 133.635 178.438 134.281C178.229 134.781 177.969 135.177 177.656 135.469C177.365 135.76 177.031 135.979 176.656 136.125C176.302 136.292 175.917 136.396 175.5 136.438C175.083 136.479 174.656 136.5 174.219 136.5C173.385 136.5 172.698 136.417 172.156 136.25C171.635 136.083 171.219 135.875 170.906 135.625C170.594 135.375 170.354 135.104 170.188 134.812C170.042 134.521 169.927 134.26 169.844 134.031L158.719 96.8438C158.51 96.1354 158.281 95.5417 158.031 95.0625C157.802 94.5625 157.51 94.1562 157.156 93.8438C156.823 93.5312 156.406 93.3021 155.906 93.1562C155.427 93.0104 154.833 92.9375 154.125 92.9375C153.542 92.9375 152.865 93.0833 152.094 93.375C151.323 93.6458 150.583 94.0625 149.875 94.625C149.188 95.1667 148.604 95.8542 148.125 96.6875C147.646 97.5 147.406 98.4479 147.406 99.5312C147.406 100.198 147.49 100.729 147.656 101.125C147.844 101.521 148.052 101.823 148.281 102.031C148.51 102.219 148.74 102.344 148.969 102.406C149.219 102.448 149.396 102.469 149.5 102.469C150.021 102.469 150.448 102.385 150.781 102.219C151.115 102.031 151.417 101.844 151.688 101.656C151.958 101.448 152.208 101.26 152.438 101.094C152.688 100.906 152.969 100.812 153.281 100.812C153.531 100.812 153.792 100.875 154.062 101C154.354 101.104 154.615 101.281 154.844 101.531C155.094 101.781 155.302 102.115 155.469 102.531C155.635 102.927 155.719 103.417 155.719 104C155.719 104.833 155.552 105.552 155.219 106.156C154.906 106.76 154.49 107.271 153.969 107.688C153.469 108.083 152.885 108.385 152.219 108.594C151.573 108.781 150.927 108.875 150.281 108.875C149.281 108.875 148.385 108.698 147.594 108.344C146.823 107.99 146.167 107.51 145.625 106.906C145.104 106.302 144.698 105.604 144.406 104.812C144.135 104 144 103.135 144 102.219C144 100.052 144.417 98.1667 145.25 96.5625C146.083 94.9375 147.188 93.5833 148.562 92.5C149.938 91.4167 151.5 90.6146 153.25 90.0938C155 89.5521 156.802 89.2812 158.656 89.2812C160.74 89.2812 162.448 89.6042 163.781 90.25C165.115 90.875 166.188 91.6875 167 92.6875C167.833 93.6875 168.49 94.8125 168.969 96.0625C169.448 97.2917 169.875 98.5104 170.25 99.7188L178.062 125.062ZM212.719 120C212.719 117.271 213.115 114.885 213.906 112.844C214.698 110.781 215.75 109.062 217.062 107.688C218.396 106.312 219.938 105.281 221.688 104.594C223.438 103.906 225.271 103.562 227.188 103.562C229.104 103.562 230.938 103.885 232.688 104.531C234.438 105.156 235.969 106.125 237.281 107.438C238.615 108.75 239.677 110.417 240.469 112.438C241.26 114.438 241.656 116.812 241.656 119.562C241.656 122.292 241.26 124.708 240.469 126.812C239.677 128.917 238.615 130.688 237.281 132.125C235.969 133.562 234.438 134.656 232.688 135.406C230.938 136.135 229.104 136.5 227.188 136.5C225.271 136.5 223.438 136.156 221.688 135.469C219.938 134.76 218.396 133.719 217.062 132.344C215.75 130.969 214.698 129.25 213.906 127.188C213.115 125.125 212.719 122.729 212.719 120ZM231.938 119.688C231.938 118.021 231.875 116.417 231.75 114.875C231.646 113.312 231.427 111.927 231.094 110.719C230.76 109.51 230.281 108.552 229.656 107.844C229.031 107.115 228.208 106.75 227.188 106.75C226.167 106.75 225.344 107.135 224.719 107.906C224.094 108.656 223.615 109.656 223.281 110.906C222.948 112.135 222.729 113.542 222.625 115.125C222.521 116.708 222.469 118.333 222.469 120C222.469 121.667 222.521 123.302 222.625 124.906C222.729 126.49 222.948 127.906 223.281 129.156C223.615 130.406 224.094 131.417 224.719 132.188C225.344 132.938 226.167 133.312 227.188 133.312C228.208 133.312 229.031 132.917 229.656 132.125C230.281 131.333 230.76 130.292 231.094 129C231.427 127.708 231.646 126.25 231.75 124.625C231.875 123 231.938 121.354 231.938 119.688ZM274.219 133.25C274.219 133.521 274.177 133.844 274.094 134.219C274.01 134.594 273.802 134.948 273.469 135.281C273.156 135.615 272.677 135.896 272.031 136.125C271.385 136.375 270.51 136.5 269.406 136.5C268.302 136.5 267.427 136.365 266.781 136.094C266.156 135.844 265.677 135.542 265.344 135.188C265.031 134.833 264.833 134.469 264.75 134.094C264.667 133.719 264.625 133.417 264.625 133.188V111.094C264.625 110.802 264.583 110.51 264.5 110.219C264.417 109.906 264.292 109.625 264.125 109.375C263.958 109.125 263.75 108.927 263.5 108.781C263.25 108.615 262.958 108.531 262.625 108.531C262.062 108.531 261.51 108.698 260.969 109.031C260.427 109.344 259.917 109.708 259.438 110.125C258.979 110.542 258.573 110.958 258.219 111.375C257.885 111.792 257.646 112.104 257.5 112.312V133.25C257.5 133.521 257.458 133.844 257.375 134.219C257.292 134.594 257.083 134.948 256.75 135.281C256.438 135.615 255.958 135.896 255.312 136.125C254.688 136.375 253.823 136.5 252.719 136.5C251.615 136.5 250.74 136.365 250.094 136.094C249.469 135.844 248.99 135.542 248.656 135.188C248.323 134.833 248.115 134.469 248.031 134.094C247.948 133.719 247.906 133.417 247.906 133.188V109.062C247.906 108.458 247.76 107.938 247.469 107.5C247.198 107.042 246.729 106.812 246.062 106.812C245.708 106.812 245.406 106.875 245.156 107C244.906 107.125 244.635 107.302 244.344 107.531L243.688 106.75C244.167 106.354 244.698 105.969 245.281 105.594C245.885 105.198 246.531 104.854 247.219 104.562C247.906 104.271 248.646 104.031 249.438 103.844C250.229 103.656 251.062 103.562 251.938 103.562C253.292 103.562 254.344 103.792 255.094 104.25C255.844 104.688 256.396 105.219 256.75 105.844C257.104 106.469 257.312 107.125 257.375 107.812C257.458 108.479 257.5 109.042 257.5 109.5C258.479 108.396 259.531 107.406 260.656 106.531C261.115 106.156 261.615 105.792 262.156 105.438C262.719 105.083 263.292 104.771 263.875 104.5C264.458 104.208 265.062 103.979 265.688 103.812C266.312 103.646 266.938 103.562 267.562 103.562C268.771 103.562 269.802 103.781 270.656 104.219C271.51 104.656 272.198 105.188 272.719 105.812C273.24 106.417 273.615 107.062 273.844 107.75C274.094 108.417 274.219 109 274.219 109.5C275.219 108.396 276.271 107.406 277.375 106.531C277.833 106.156 278.333 105.792 278.875 105.438C279.417 105.083 279.979 104.771 280.562 104.5C281.167 104.208 281.771 103.979 282.375 103.812C283 103.646 283.625 103.562 284.25 103.562C285.458 103.562 286.49 103.792 287.344 104.25C288.198 104.688 288.885 105.271 289.406 106C289.927 106.729 290.302 107.552 290.531 108.469C290.781 109.385 290.906 110.302 290.906 111.219V130.562C290.906 130.75 290.917 130.958 290.938 131.188C290.958 131.396 291.01 131.604 291.094 131.812C291.177 132 291.302 132.156 291.469 132.281C291.656 132.406 291.896 132.469 292.188 132.469C292.583 132.469 292.938 132.333 293.25 132.062C293.562 131.771 293.854 131.479 294.125 131.188L294.875 131.844C294.583 132.281 294.198 132.771 293.719 133.312C293.24 133.833 292.667 134.333 292 134.812C291.354 135.292 290.594 135.688 289.719 136C288.865 136.333 287.896 136.5 286.812 136.5C285.896 136.5 285.094 136.375 284.406 136.125C283.74 135.896 283.167 135.583 282.688 135.188C282.229 134.771 281.885 134.292 281.656 133.75C281.427 133.188 281.312 132.594 281.312 131.969V111.094C281.312 110.802 281.271 110.51 281.188 110.219C281.104 109.906 280.979 109.625 280.812 109.375C280.667 109.125 280.469 108.927 280.219 108.781C279.969 108.615 279.677 108.531 279.344 108.531C278.781 108.531 278.219 108.698 277.656 109.031C277.115 109.344 276.604 109.708 276.125 110.125C275.667 110.542 275.271 110.958 274.938 111.375C274.604 111.792 274.365 112.104 274.219 112.312V133.25ZM307.219 121.656C307.219 122.323 307.312 123.052 307.5 123.844C307.708 124.615 308 125.396 308.375 126.188C308.75 126.979 309.208 127.74 309.75 128.469C310.312 129.177 310.948 129.812 311.656 130.375C312.385 130.938 313.188 131.385 314.062 131.719C314.938 132.052 315.896 132.219 316.938 132.219C317.667 132.219 318.344 132.135 318.969 131.969C319.594 131.802 320.177 131.573 320.719 131.281C321.26 130.99 321.781 130.656 322.281 130.281C322.781 129.885 323.281 129.469 323.781 129.031L324.562 129.781C324.083 130.427 323.469 131.135 322.719 131.906C321.969 132.677 321.062 133.406 320 134.094C318.938 134.76 317.698 135.323 316.281 135.781C314.865 136.219 313.25 136.438 311.438 136.438C309.625 136.438 307.854 136.115 306.125 135.469C304.417 134.802 302.896 133.812 301.562 132.5C300.229 131.188 299.156 129.552 298.344 127.594C297.552 125.635 297.156 123.344 297.156 120.719C297.156 118.823 297.396 117.083 297.875 115.5C298.354 113.917 299 112.49 299.812 111.219C300.646 109.948 301.604 108.833 302.688 107.875C303.792 106.917 304.948 106.125 306.156 105.5C307.365 104.854 308.594 104.375 309.844 104.062C311.115 103.729 312.333 103.562 313.5 103.562C315.042 103.562 316.385 103.729 317.531 104.062C318.677 104.396 319.625 104.844 320.375 105.406C321.146 105.969 321.719 106.625 322.094 107.375C322.469 108.104 322.656 108.875 322.656 109.688C322.656 110.667 322.375 111.552 321.812 112.344C321.25 113.115 320.5 113.792 319.562 114.375L307.219 121.656ZM313.5 115.312C313.771 115.146 313.99 114.99 314.156 114.844C314.344 114.677 314.49 114.49 314.594 114.281C314.698 114.052 314.771 113.781 314.812 113.469C314.875 113.135 314.906 112.729 314.906 112.25C314.906 111.729 314.844 111.156 314.719 110.531C314.615 109.885 314.427 109.281 314.156 108.719C313.885 108.156 313.542 107.688 313.125 107.312C312.708 106.938 312.208 106.75 311.625 106.75C310.875 106.75 310.229 106.979 309.688 107.438C309.167 107.875 308.729 108.448 308.375 109.156C308.042 109.865 307.771 110.677 307.562 111.594C307.375 112.49 307.229 113.396 307.125 114.312C307.021 115.229 306.958 116.115 306.938 116.969C306.917 117.802 306.906 118.51 306.906 119.094L313.5 115.312ZM347.156 120.438C347.156 117.812 347.031 115.719 346.781 114.156C346.552 112.573 346.24 111.375 345.844 110.562C345.448 109.729 345.01 109.188 344.531 108.938C344.052 108.667 343.562 108.531 343.062 108.531C342.458 108.531 341.917 108.698 341.438 109.031C340.979 109.344 340.573 109.708 340.219 110.125C339.885 110.542 339.594 110.958 339.344 111.375C339.115 111.792 338.917 112.104 338.75 112.312V133.188C338.75 133.458 338.708 133.792 338.625 134.188C338.542 134.562 338.333 134.927 338 135.281C337.688 135.615 337.208 135.896 336.562 136.125C335.938 136.375 335.073 136.5 333.969 136.5C332.865 136.5 331.99 136.365 331.344 136.094C330.719 135.844 330.24 135.542 329.906 135.188C329.573 134.833 329.365 134.469 329.281 134.094C329.198 133.719 329.156 133.417 329.156 133.188V109.062C329.156 108.458 329.01 107.938 328.719 107.5C328.448 107.042 327.979 106.812 327.312 106.812C326.958 106.812 326.656 106.875 326.406 107C326.156 107.125 325.885 107.302 325.594 107.531L324.938 106.75C325.417 106.354 325.948 105.969 326.531 105.594C327.135 105.198 327.781 104.854 328.469 104.562C329.156 104.271 329.896 104.031 330.688 103.844C331.479 103.656 332.312 103.562 333.188 103.562C334.542 103.562 335.594 103.792 336.344 104.25C337.094 104.688 337.646 105.219 338 105.844C338.354 106.469 338.562 107.125 338.625 107.812C338.708 108.479 338.75 109.042 338.75 109.5C339.521 108.396 340.396 107.406 341.375 106.531C341.771 106.156 342.208 105.792 342.688 105.438C343.188 105.083 343.708 104.771 344.25 104.5C344.812 104.208 345.396 103.979 346 103.812C346.625 103.646 347.26 103.562 347.906 103.562C349.323 103.562 350.573 103.833 351.656 104.375C352.76 104.917 353.688 105.823 354.438 107.094C355.188 108.365 355.76 110.052 356.156 112.156C356.552 114.24 356.75 116.833 356.75 119.938C356.75 122.958 356.479 125.583 355.938 127.812C355.396 130.042 354.688 131.938 353.812 133.5C352.938 135.062 351.948 136.333 350.844 137.312C349.74 138.312 348.625 139.094 347.5 139.656C346.375 140.219 345.292 140.604 344.25 140.812C343.229 141.042 342.344 141.167 341.594 141.188L341.25 139.906C341.875 139.76 342.448 139.531 342.969 139.219C343.51 138.906 344 138.448 344.438 137.844C344.875 137.24 345.26 136.479 345.594 135.562C345.927 134.625 346.208 133.458 346.438 132.062C346.688 130.667 346.865 129.021 346.969 127.125C347.094 125.208 347.156 122.979 347.156 120.438Z" fill="#460C1E"/>
<path d="M34.0625 62.0625C34.5208 60.8333 35 59.5104 35.5 58.0938C36 56.6771 36.4896 55.2188 36.9688 53.7188C37.4479 52.1979 37.9062 50.6667 38.3438 49.125C38.8021 47.5625 39.2083 46.0312 39.5625 44.5312L36.5312 34.5938C36.3229 33.9062 36.3333 33.3125 36.5625 32.8125C36.8125 32.2917 37.1979 31.8646 37.7188 31.5312C38.2396 31.1771 38.8542 30.9167 39.5625 30.75C40.2917 30.5833 41.0521 30.5 41.8438 30.5C42.5312 30.5 43.1458 30.5417 43.6875 30.625C44.2292 30.6875 44.6979 30.8125 45.0938 31C45.5104 31.1875 45.8542 31.4583 46.125 31.8125C46.3958 32.1458 46.6146 32.5833 46.7812 33.125L55.75 62C56.2292 60.7083 56.7292 59.3125 57.25 57.8125C57.7708 56.3125 58.2812 54.7708 58.7812 53.1875C59.2812 51.6042 59.7604 50 60.2188 48.375C60.6771 46.75 61.0729 45.1562 61.4062 43.5938C61.7604 42.0312 62.0312 40.5417 62.2188 39.125C62.4271 37.6875 62.5312 36.375 62.5312 35.1875C62.5312 33.8125 62.4375 32.6667 62.25 31.75C62.0625 30.8333 61.8438 30.0729 61.5938 29.4688C61.3646 28.8438 61.1562 28.3333 60.9688 27.9375C60.7812 27.5417 60.6875 27.1771 60.6875 26.8438C60.6875 26.4062 60.8021 26.0417 61.0312 25.75C61.2604 25.4375 61.5521 25.1771 61.9062 24.9688C62.2604 24.7604 62.6458 24.6146 63.0625 24.5312C63.4792 24.4271 63.875 24.375 64.25 24.375C65.0833 24.375 65.7917 24.5 66.375 24.75C66.9583 25 67.3646 25.4271 67.5938 26.0312C67.6979 26.3438 67.7812 26.6771 67.8438 27.0312C67.9062 27.3646 67.9479 27.6979 67.9688 28.0312C68.0104 28.3438 68.0312 28.6458 68.0312 28.9375C68.0312 29.2083 68.0312 29.4271 68.0312 29.5938C68.0312 30.4688 67.8854 31.6667 67.5938 33.1875C67.3229 34.7083 66.9375 36.4271 66.4375 38.3438C65.9583 40.2396 65.4062 42.2812 64.7812 44.4688C64.1562 46.6562 63.5 48.8646 62.8125 51.0938C62.1458 53.3021 61.4688 55.4688 60.7812 57.5938C60.0938 59.7188 59.4375 61.6875 58.8125 63.5C58.2083 65.2917 57.6667 66.875 57.1875 68.25C56.7292 69.6042 56.375 70.6146 56.125 71.2812C55.9583 71.7812 55.7292 72.1771 55.4375 72.4688C55.1667 72.7604 54.8438 72.9792 54.4688 73.125C54.1146 73.2917 53.7188 73.3958 53.2812 73.4375C52.8646 73.4792 52.4271 73.5 51.9688 73.5C51.1354 73.5 50.4479 73.4167 49.9062 73.25C49.3854 73.0833 48.9688 72.875 48.6562 72.625C48.3438 72.375 48.1146 72.1042 47.9688 71.8125C47.8229 71.5208 47.7083 71.2604 47.625 71.0312L41.4062 50.5938C40.7188 52.8646 40.0208 55.1042 39.3125 57.3125C38.6042 59.5 37.9271 61.5208 37.2812 63.375C36.6562 65.2292 36.0938 66.8542 35.5938 68.25C35.0938 69.625 34.7083 70.6354 34.4375 71.2812C34.2292 71.7812 33.9688 72.1771 33.6562 72.4688C33.3646 72.7604 33.0312 72.9792 32.6562 73.125C32.3021 73.2917 31.9167 73.3958 31.5 73.4375C31.0833 73.4792 30.6562 73.5 30.2188 73.5C29.3854 73.5 28.6979 73.4167 28.1562 73.25C27.6354 73.0833 27.2188 72.875 26.9062 72.625C26.5938 72.375 26.3542 72.1042 26.1875 71.8125C26.0417 71.5208 25.9271 71.2604 25.8438 71.0312L14.7188 33.8438C14.5104 33.1354 14.2812 32.5417 14.0312 32.0625C13.8021 31.5625 13.5104 31.1562 13.1562 30.8438C12.8229 30.5312 12.4062 30.3021 11.9062 30.1562C11.4271 30.0104 10.8333 29.9375 10.125 29.9375C9.54167 29.9375 8.86458 30.0833 8.09375 30.375C7.32292 30.6458 6.58333 31.0625 5.875 31.625C5.1875 32.1667 4.60417 32.8542 4.125 33.6875C3.64583 34.5 3.40625 35.4479 3.40625 36.5312C3.40625 37.1979 3.48958 37.7292 3.65625 38.125C3.84375 38.5208 4.05208 38.8229 4.28125 39.0312C4.51042 39.2188 4.73958 39.3438 4.96875 39.4062C5.21875 39.4479 5.39583 39.4688 5.5 39.4688C6.02083 39.4688 6.44792 39.3854 6.78125 39.2188C7.11458 39.0312 7.41667 38.8438 7.6875 38.6562C7.95833 38.4479 8.20833 38.2604 8.4375 38.0938C8.6875 37.9062 8.96875 37.8125 9.28125 37.8125C9.53125 37.8125 9.79167 37.875 10.0625 38C10.3542 38.1042 10.6146 38.2812 10.8438 38.5312C11.0938 38.7812 11.3021 39.1146 11.4688 39.5312C11.6354 39.9271 11.7188 40.4167 11.7188 41C11.7188 41.8333 11.5521 42.5521 11.2188 43.1562C10.9062 43.7604 10.4896 44.2708 9.96875 44.6875C9.46875 45.0833 8.88542 45.3854 8.21875 45.5938C7.57292 45.7812 6.92708 45.875 6.28125 45.875C5.28125 45.875 4.38542 45.6979 3.59375 45.3438C2.82292 44.9896 2.16667 44.5104 1.625 43.9062C1.10417 43.3021 0.697917 42.6042 0.40625 41.8125C0.135417 41 0 40.1354 0 39.2188C0 37.0521 0.416667 35.1667 1.25 33.5625C2.08333 31.9375 3.1875 30.5833 4.5625 29.5C5.9375 28.4167 7.5 27.6146 9.25 27.0938C11 26.5521 12.8021 26.2812 14.6562 26.2812C16.7396 26.2812 18.4479 26.6042 19.7812 27.25C21.1146 27.875 22.1875 28.6875 23 29.6875C23.8333 30.6875 24.4896 31.8125 24.9688 33.0625C25.4479 34.2917 25.875 35.5104 26.25 36.7188L34.0625 62.0625ZM68.7188 57C68.7188 54.2708 69.1146 51.8854 69.9062 49.8438C70.6979 47.7812 71.75 46.0625 73.0625 44.6875C74.3958 43.3125 75.9375 42.2812 77.6875 41.5938C79.4375 40.9062 81.2708 40.5625 83.1875 40.5625C85.1042 40.5625 86.9375 40.8854 88.6875 41.5312C90.4375 42.1562 91.9688 43.125 93.2812 44.4375C94.6146 45.75 95.6771 47.4167 96.4688 49.4375C97.2604 51.4375 97.6562 53.8125 97.6562 56.5625C97.6562 59.2917 97.2604 61.7083 96.4688 63.8125C95.6771 65.9167 94.6146 67.6875 93.2812 69.125C91.9688 70.5625 90.4375 71.6562 88.6875 72.4062C86.9375 73.1354 85.1042 73.5 83.1875 73.5C81.2708 73.5 79.4375 73.1562 77.6875 72.4688C75.9375 71.7604 74.3958 70.7188 73.0625 69.3438C71.75 67.9688 70.6979 66.25 69.9062 64.1875C69.1146 62.125 68.7188 59.7292 68.7188 57ZM87.9375 56.6875C87.9375 55.0208 87.875 53.4167 87.75 51.875C87.6458 50.3125 87.4271 48.9271 87.0938 47.7188C86.7604 46.5104 86.2812 45.5521 85.6562 44.8438C85.0312 44.1146 84.2083 43.75 83.1875 43.75C82.1667 43.75 81.3438 44.1354 80.7188 44.9062C80.0938 45.6562 79.6146 46.6562 79.2812 47.9062C78.9479 49.1354 78.7292 50.5417 78.625 52.125C78.5208 53.7083 78.4688 55.3333 78.4688 57C78.4688 58.6667 78.5208 60.3021 78.625 61.9062C78.7292 63.4896 78.9479 64.9062 79.2812 66.1562C79.6146 67.4062 80.0938 68.4167 80.7188 69.1875C81.3438 69.9375 82.1667 70.3125 83.1875 70.3125C84.2083 70.3125 85.0312 69.9167 85.6562 69.125C86.2812 68.3333 86.7604 67.2917 87.0938 66C87.4271 64.7083 87.6458 63.25 87.75 61.625C87.875 60 87.9375 58.3542 87.9375 56.6875ZM121.906 57.4375C121.906 54.8125 121.781 52.7188 121.531 51.1562C121.302 49.5729 120.99 48.375 120.594 47.5625C120.198 46.7292 119.76 46.1875 119.281 45.9375C118.802 45.6667 118.312 45.5312 117.812 45.5312C117.208 45.5312 116.667 45.6979 116.188 46.0312C115.729 46.3438 115.323 46.7083 114.969 47.125C114.635 47.5417 114.344 47.9583 114.094 48.375C113.865 48.7917 113.667 49.1042 113.5 49.3125V70.1875C113.5 70.4583 113.458 70.7917 113.375 71.1875C113.292 71.5625 113.083 71.9271 112.75 72.2812C112.438 72.6146 111.958 72.8958 111.312 73.125C110.688 73.375 109.823 73.5 108.719 73.5C107.615 73.5 106.74 73.3646 106.094 73.0938C105.469 72.8438 104.99 72.5417 104.656 72.1875C104.323 71.8333 104.115 71.4688 104.031 71.0938C103.948 70.7188 103.906 70.4167 103.906 70.1875V46.0625C103.906 45.4583 103.76 44.9375 103.469 44.5C103.198 44.0417 102.729 43.8125 102.062 43.8125C101.708 43.8125 101.406 43.875 101.156 44C100.906 44.125 100.635 44.3021 100.344 44.5312L99.6875 43.75C100.167 43.3542 100.698 42.9688 101.281 42.5938C101.885 42.1979 102.531 41.8542 103.219 41.5625C103.906 41.2708 104.646 41.0312 105.438 40.8438C106.229 40.6562 107.062 40.5625 107.938 40.5625C109.292 40.5625 110.344 40.7917 111.094 41.25C111.844 41.6875 112.396 42.2188 112.75 42.8438C113.104 43.4688 113.312 44.125 113.375 44.8125C113.458 45.4792 113.5 46.0417 113.5 46.5C114.271 45.3958 115.146 44.4062 116.125 43.5312C116.521 43.1562 116.958 42.7917 117.438 42.4375C117.938 42.0833 118.458 41.7708 119 41.5C119.562 41.2083 120.146 40.9792 120.75 40.8125C121.375 40.6458 122.01 40.5625 122.656 40.5625C124.073 40.5625 125.323 40.8333 126.406 41.375C127.51 41.9167 128.438 42.8229 129.188 44.0938C129.938 45.3646 130.51 47.0521 130.906 49.1562C131.302 51.2396 131.5 53.8333 131.5 56.9375C131.5 59.9583 131.229 62.5833 130.688 64.8125C130.146 67.0417 129.438 68.9375 128.562 70.5C127.688 72.0625 126.698 73.3333 125.594 74.3125C124.49 75.3125 123.375 76.0938 122.25 76.6562C121.125 77.2188 120.042 77.6042 119 77.8125C117.979 78.0417 117.094 78.1667 116.344 78.1875L116 76.9062C116.625 76.7604 117.198 76.5312 117.719 76.2188C118.26 75.9062 118.75 75.4479 119.188 74.8438C119.625 74.2396 120.01 73.4792 120.344 72.5625C120.677 71.625 120.958 70.4583 121.188 69.0625C121.438 67.6667 121.615 66.0208 121.719 64.125C121.844 62.2083 121.906 59.9792 121.906 57.4375ZM155.312 56.0312C155.312 55.8021 155.312 55.3438 155.312 54.6562C155.312 53.9479 155.292 53.1458 155.25 52.25C155.208 51.3333 155.135 50.3646 155.031 49.3438C154.927 48.3229 154.76 47.375 154.531 46.5C154.031 45.8542 153.469 45.2812 152.844 44.7812C152.24 44.2604 151.458 44 150.5 44C148.875 44 147.677 45.0625 146.906 47.1875C146.156 49.3125 145.781 52.6042 145.781 57.0625C145.781 59.0208 145.865 60.8125 146.031 62.4375C146.219 64.0625 146.49 65.4583 146.844 66.625C147.219 67.7917 147.688 68.6979 148.25 69.3438C148.833 69.9896 149.521 70.3125 150.312 70.3125C153.646 70.3125 155.312 65.5521 155.312 56.0312ZM154.938 42.2812C154.542 40.1979 153.99 38.2604 153.281 36.4688C152.573 34.6562 151.719 33.0938 150.719 31.7812C149.74 30.4688 148.615 29.4375 147.344 28.6875C146.094 27.9375 144.74 27.5625 143.281 27.5625C142.448 27.5625 141.688 27.6667 141 27.875C140.333 28.0833 139.75 28.3333 139.25 28.625C138.75 28.8958 138.333 29.1667 138 29.4375C137.688 29.6875 137.458 29.875 137.312 30L136.5 28.9062C137 28.2604 137.604 27.6562 138.312 27.0938C139.042 26.5312 139.833 26.0521 140.688 25.6562C141.542 25.2604 142.438 24.9479 143.375 24.7188C144.333 24.4896 145.281 24.375 146.219 24.375C149.302 24.375 152.01 25.0521 154.344 26.4062C156.677 27.7396 158.625 29.6354 160.188 32.0938C161.75 34.5521 162.927 37.5208 163.719 41C164.51 44.4792 164.906 48.3438 164.906 52.5938C164.906 56.0312 164.552 59.0521 163.844 61.6562C163.156 64.2604 162.167 66.4479 160.875 68.2188C159.583 69.9688 158.01 71.2917 156.156 72.1875C154.323 73.0625 152.25 73.5 149.938 73.5C148.333 73.5 146.698 73.2188 145.031 72.6562C143.385 72.0729 141.885 71.1354 140.531 69.8438C139.198 68.5521 138.104 66.8646 137.25 64.7812C136.396 62.6771 135.969 60.1042 135.969 57.0625C135.969 54.4375 136.333 52.1042 137.062 50.0625C137.812 48.0208 138.812 46.3021 140.062 44.9062C141.312 43.4896 142.76 42.4167 144.406 41.6875C146.052 40.9375 147.792 40.5625 149.625 40.5625C150.333 40.5625 150.969 40.625 151.531 40.75C152.094 40.8542 152.583 40.9896 153 41.1562C153.417 41.3229 153.781 41.5104 154.094 41.7188C154.406 41.9062 154.688 42.0938 154.938 42.2812ZM178.969 58.6562C178.969 59.3229 179.062 60.0521 179.25 60.8438C179.458 61.6146 179.75 62.3958 180.125 63.1875C180.5 63.9792 180.958 64.7396 181.5 65.4688C182.062 66.1771 182.698 66.8125 183.406 67.375C184.135 67.9375 184.938 68.3854 185.812 68.7188C186.688 69.0521 187.646 69.2188 188.688 69.2188C189.417 69.2188 190.094 69.1354 190.719 68.9688C191.344 68.8021 191.927 68.5729 192.469 68.2812C193.01 67.9896 193.531 67.6562 194.031 67.2812C194.531 66.8854 195.031 66.4688 195.531 66.0312L196.312 66.7812C195.833 67.4271 195.219 68.1354 194.469 68.9062C193.719 69.6771 192.812 70.4062 191.75 71.0938C190.688 71.7604 189.448 72.3229 188.031 72.7812C186.615 73.2188 185 73.4375 183.188 73.4375C181.375 73.4375 179.604 73.1146 177.875 72.4688C176.167 71.8021 174.646 70.8125 173.312 69.5C171.979 68.1875 170.906 66.5521 170.094 64.5938C169.302 62.6354 168.906 60.3438 168.906 57.7188C168.906 55.8229 169.146 54.0833 169.625 52.5C170.104 50.9167 170.75 49.4896 171.562 48.2188C172.396 46.9479 173.354 45.8333 174.438 44.875C175.542 43.9167 176.698 43.125 177.906 42.5C179.115 41.8542 180.344 41.375 181.594 41.0625C182.865 40.7292 184.083 40.5625 185.25 40.5625C186.792 40.5625 188.135 40.7292 189.281 41.0625C190.427 41.3958 191.375 41.8438 192.125 42.4062C192.896 42.9688 193.469 43.625 193.844 44.375C194.219 45.1042 194.406 45.875 194.406 46.6875C194.406 47.6667 194.125 48.5521 193.562 49.3438C193 50.1146 192.25 50.7917 191.312 51.375L178.969 58.6562ZM185.25 52.3125C185.521 52.1458 185.74 51.9896 185.906 51.8438C186.094 51.6771 186.24 51.4896 186.344 51.2812C186.448 51.0521 186.521 50.7812 186.562 50.4688C186.625 50.1354 186.656 49.7292 186.656 49.25C186.656 48.7292 186.594 48.1562 186.469 47.5312C186.365 46.8854 186.177 46.2812 185.906 45.7188C185.635 45.1562 185.292 44.6875 184.875 44.3125C184.458 43.9375 183.958 43.75 183.375 43.75C182.625 43.75 181.979 43.9792 181.438 44.4375C180.917 44.875 180.479 45.4479 180.125 46.1562C179.792 46.8646 179.521 47.6771 179.312 48.5938C179.125 49.4896 178.979 50.3958 178.875 51.3125C178.771 52.2292 178.708 53.1146 178.688 53.9688C178.667 54.8021 178.656 55.5104 178.656 56.0938L185.25 52.3125ZM210.5 47.1562C211.292 45.9479 212.135 44.8542 213.031 43.875C213.406 43.4583 213.812 43.0521 214.25 42.6562C214.688 42.2604 215.135 41.9062 215.594 41.5938C216.073 41.2812 216.562 41.0312 217.062 40.8438C217.562 40.6562 218.062 40.5625 218.562 40.5625C219.625 40.5625 220.458 40.8854 221.062 41.5312C221.667 42.1562 221.969 43.0417 221.969 44.1875C221.969 44.8958 221.906 45.5833 221.781 46.25C221.677 46.8958 221.458 47.6875 221.125 48.625H220.25C220.125 47.9792 219.833 47.4479 219.375 47.0312C218.917 46.5938 218.25 46.375 217.375 46.375C216.729 46.375 216.094 46.5 215.469 46.75C214.844 46.9792 214.229 47.2708 213.625 47.625C213.042 47.9792 212.479 48.3646 211.938 48.7812C211.417 49.1979 210.938 49.5938 210.5 49.9688V70.25C210.5 70.5208 210.458 70.8438 210.375 71.2188C210.292 71.5938 210.083 71.9479 209.75 72.2812C209.438 72.6146 208.958 72.8958 208.312 73.125C207.688 73.375 206.823 73.5 205.719 73.5C204.615 73.5 203.74 73.3646 203.094 73.0938C202.469 72.8438 201.99 72.5417 201.656 72.1875C201.323 71.8333 201.115 71.4688 201.031 71.0938C200.948 70.7188 200.906 70.4167 200.906 70.1875V46.0625C200.906 45.4583 200.76 44.9375 200.469 44.5C200.198 44.0417 199.729 43.8125 199.062 43.8125C198.708 43.8125 198.406 43.875 198.156 44C197.906 44.125 197.635 44.3021 197.344 44.5312L196.688 43.75C197.167 43.3542 197.698 42.9688 198.281 42.5938C198.885 42.1979 199.531 41.8542 200.219 41.5625C200.906 41.2708 201.646 41.0312 202.438 40.8438C203.229 40.6562 204.062 40.5625 204.938 40.5625C205.833 40.5625 206.594 40.6875 207.219 40.9375C207.865 41.1667 208.385 41.4792 208.781 41.875C209.198 42.25 209.521 42.6771 209.75 43.1562C209.979 43.6354 210.146 44.125 210.25 44.625C210.375 45.1042 210.448 45.5729 210.469 46.0312C210.49 46.4688 210.5 46.8438 210.5 47.1562Z" fill="#460C1E"/>
</svg>
